<mxfile host="65bd71144e">
    <diagram id="J6tWas4Lji1W6XUB_DcS" name="PÃ¡gina-1">
        <mxGraphModel dx="575" dy="461" grid="1" gridSize="10" guides="1" tooltips="1" connect="1" arrows="1" fold="1" page="1" pageScale="1" pageWidth="827" pageHeight="1169" math="0" shadow="0">
            <root>
                <mxCell id="0"/>
                <mxCell id="1" parent="0"/>
                <mxCell id="3" style="edgeStyle=none;html=1;" edge="1" parent="1" source="2" target="4">
                    <mxGeometry relative="1" as="geometry">
                        <mxPoint x="290" y="210" as="targetPoint"/>
                    </mxGeometry>
                </mxCell>
                <mxCell id="2" value="INICIO" style="ellipse;whiteSpace=wrap;html=1;fillColor=#e51400;fontColor=#ffffff;strokeColor=#B20000;" vertex="1" parent="1">
                    <mxGeometry x="230" y="80" width="120" height="80" as="geometry"/>
                </mxCell>
                <mxCell id="5" style="edgeStyle=none;html=1;" edge="1" parent="1" source="4" target="6">
                    <mxGeometry relative="1" as="geometry">
                        <mxPoint x="290" y="310" as="targetPoint"/>
                    </mxGeometry>
                </mxCell>
                <mxCell id="4" value="n" style="shape=parallelogram;perimeter=parallelogramPerimeter;whiteSpace=wrap;html=1;fixedSize=1;strokeColor=#A53D89;fillColor=#d80073;fontColor=#ffffff;" vertex="1" parent="1">
                    <mxGeometry x="230" y="200" width="120" height="60" as="geometry"/>
                </mxCell>
                <mxCell id="7" style="edgeStyle=none;html=1;" edge="1" parent="1" source="6" target="8">
                    <mxGeometry relative="1" as="geometry">
                        <mxPoint x="290" y="410" as="targetPoint"/>
                    </mxGeometry>
                </mxCell>
                <mxCell id="6" value="s = 0&lt;br&gt;i = 1" style="rounded=0;whiteSpace=wrap;html=1;fillColor=#f8cecc;gradientColor=#c44945;strokeColor=#b85450;" vertex="1" parent="1">
                    <mxGeometry x="230" y="300" width="120" height="60" as="geometry"/>
                </mxCell>
                <mxCell id="9" style="edgeStyle=none;html=1;exitX=1;exitY=0.5;exitDx=0;exitDy=0;" edge="1" parent="1" source="8" target="10">
                    <mxGeometry relative="1" as="geometry">
                        <mxPoint x="450" y="540" as="targetPoint"/>
                        <Array as="points">
                            <mxPoint x="450" y="430"/>
                        </Array>
                    </mxGeometry>
                </mxCell>
                <mxCell id="15" style="edgeStyle=none;html=1;" edge="1" parent="1" source="8" target="16">
                    <mxGeometry relative="1" as="geometry">
                        <mxPoint x="290" y="530" as="targetPoint"/>
                    </mxGeometry>
                </mxCell>
                <mxCell id="8" value="i&amp;lt; = n" style="rhombus;whiteSpace=wrap;html=1;fillColor=#f8cecc;gradientColor=#ea6b66;strokeColor=#b85450;" vertex="1" parent="1">
                    <mxGeometry x="250" y="390" width="80" height="80" as="geometry"/>
                </mxCell>
                <mxCell id="14" style="edgeStyle=none;html=1;exitX=0.492;exitY=0.9;exitDx=0;exitDy=0;exitPerimeter=0;" edge="1" parent="1" source="10">
                    <mxGeometry relative="1" as="geometry">
                        <mxPoint x="450" y="640" as="targetPoint"/>
                        <Array as="points">
                            <mxPoint x="450" y="570"/>
                        </Array>
                    </mxGeometry>
                </mxCell>
                <mxCell id="10" value="&lt;span style=&quot;background-color: rgb(157, 32, 32);&quot;&gt;s&lt;/span&gt;" style="shape=document;whiteSpace=wrap;html=1;boundedLbl=1;fillColor=#f8cecc;strokeColor=#632D2B;" vertex="1" parent="1">
                    <mxGeometry x="390" y="500" width="120" height="80" as="geometry"/>
                </mxCell>
                <mxCell id="11" value="FIN" style="ellipse;whiteSpace=wrap;html=1;fillColor=#e51400;fontColor=#ffffff;strokeColor=#B20000;" vertex="1" parent="1">
                    <mxGeometry x="390" y="640" width="120" height="80" as="geometry"/>
                </mxCell>
                <mxCell id="17" style="edgeStyle=none;html=1;" edge="1" parent="1" source="16">
                    <mxGeometry relative="1" as="geometry">
                        <mxPoint x="290" y="380" as="targetPoint"/>
                        <Array as="points">
                            <mxPoint x="290" y="650"/>
                            <mxPoint x="120" y="650"/>
                            <mxPoint x="120" y="430"/>
                            <mxPoint x="120" y="380"/>
                        </Array>
                    </mxGeometry>
                </mxCell>
                <mxCell id="16" value="s = s+i" style="rounded=0;whiteSpace=wrap;html=1;fillColor=#ec7490;fontColor=#ffffff;strokeColor=#6F0000;" vertex="1" parent="1">
                    <mxGeometry x="230" y="510" width="120" height="60" as="geometry"/>
                </mxCell>
                <mxCell id="18" value="F" style="text;html=1;align=center;verticalAlign=middle;resizable=0;points=[];autosize=1;strokeColor=none;fillColor=none;" vertex="1" parent="1">
                    <mxGeometry x="360" y="410" width="30" height="30" as="geometry"/>
                </mxCell>
            </root>
        </mxGraphModel>
    </diagram>
</mxfile>